<?xml version="1.0" encoding="utf-8"?>
<svg width="16" height="16" viewBox="0 0 16 16" fill="none" xmlns="http://www.w3.org/2000/svg">
  <defs>
    <filter color-interpolation-filters="sRGB" x="-14" y="-14" width="16" height="16" id="filter_1">
      <feFlood flood-opacity="0" result="BackgroundImageFix_1" />
      <feBlend mode="normal" in="SourceGraphic" in2="BackgroundImageFix_1" result="Shape_2" />
      <feColorMatrix type="matrix" values="0 0 0 0 0 0 0 0 0 0 0 0 0 0 0 0 0 0 1 0" in="SourceAlpha" result="HardAlpha_3" />
      <feOffset dx="0" dy="0" />
      <feGaussianBlur stdDeviation="1" />
      <feComposite operator="arithmetic" k2="-1" k3="1" in2="HardAlpha_3" />
      <feColorMatrix type="matrix" values="0 0 0 0 0 0 0 0 0 0 0 0 0 0 0 0 0 0 0.102 0" />
      <feBlend mode="normal" in2="Shape_2" result="InnerShadow_4" />
      <feColorMatrix type="matrix" values="0 0 0 0 0 0 0 0 0 0 0 0 0 0 0 0 0 0 1 0" in="SourceAlpha" result="HardAlpha_5" />
      <feOffset dx="0" dy="1" />
      <feGaussianBlur stdDeviation="1" />
      <feComposite operator="arithmetic" k2="-1" k3="1" in2="HardAlpha_5" />
      <feColorMatrix type="matrix" values="0 0 0 0 0 0 0 0 0 0 0 0 0 0 0 0 0 0 0.102 0" />
      <feBlend mode="normal" in2="InnerShadow_4" result="InnerShadow_6" />
    </filter>
  </defs>
  <g fill="#333333" filter="url(#filter_1)">
    <path d="M3.5 0L12.5 0C14.4333 0 16 1.56689 16 3.5L16 12.5C16 14.4331 14.4333 16 12.5 16L3.5 16C1.56674 16 0 14.4331 0 12.5L0 3.5C0 1.56689 1.56674 0 3.5 0L3.5 0Z" />
    <path d="M12.5 0L3.5 0C1.56674 0 0 1.56689 0 3.5L0 12.5C0 14.4331 1.56674 16 3.5 16L12.5 16C14.4333 16 16 14.4331 16 12.5L16 3.5C16 1.56689 14.4333 0 12.5 0ZM0.5 3.5Q0.5 0.5 3.5 0.5L12.5 0.5Q15.5 0.5 15.5 3.5L15.5 12.5Q15.5 15.5 12.5 15.5L3.5 15.5Q0.5 15.5 0.5 12.5L0.5 3.5Z" fill="#BDBDBD" fill-rule="evenodd" />
  </g>
</svg>