<?xml version="1.0" encoding="utf-8"?>
<svg width="249" height="32" viewBox="0 0 249 32" fill="none" xmlns="http://www.w3.org/2000/svg">
  <defs>
    <filter color-interpolation-filters="sRGB" x="-243" y="-26" width="245" height="28" id="filter_1">
      <feFlood flood-opacity="0" result="BackgroundImageFix_1" />
      <feColorMatrix type="matrix" values="0 0 0 0 0 0 0 0 0 0 0 0 0 0 0 0 0 0 1 0" in="SourceAlpha" />
      <feOffset dx="0" dy="1" />
      <feGaussianBlur stdDeviation="0.375" />
      <feColorMatrix type="matrix" values="0 0 0 0 0 0 0 0 0 0 0 0 0 0 0 0 0 0 0.102 0" />
      <feBlend mode="normal" in2="BackgroundImageFix_1" result="Shadow_2" />
      <feColorMatrix type="matrix" values="0 0 0 0 0 0 0 0 0 0 0 0 0 0 0 0 0 0 1 0" in="SourceAlpha" />
      <feOffset dx="0" dy="0.25" />
      <feGaussianBlur stdDeviation="0.125" />
      <feColorMatrix type="matrix" values="0 0 0 0 0 0 0 0 0 0 0 0 0 0 0 0 0 0 0.2 0" />
      <feBlend mode="normal" in2="Shadow_2" result="Shadow_3" />
      <feBlend mode="normal" in="SourceGraphic" in2="Shadow_3" result="Shape_4" />
    </filter>
    <clipPath id="clip_path_2">
      <rect width="217" height="16" />
    </clipPath>
    <clipPath id="clip_path_3">
      <rect width="16" height="16" rx="3.5" />
    </clipPath>
  </defs>
  <g transform="translate(2 0.75)">
    <rect width="245" height="28" rx="5" fill="#333333" fill-rule="evenodd" filter="url(#filter_1)" />
    <path d="M4.2 13.145Q3.024 13.145 2.002 12.662Q0.98 12.179 0.21 11.269L0.714 10.849Q1.414 11.675 2.303 12.109Q3.192 12.543 4.2 12.543Q5.04 12.543 5.698 12.249Q6.356 11.955 6.734 11.444Q7.112 10.933 7.112 10.289Q7.112 9.435 6.531 8.98Q5.95 8.525 4.578 8.301L3.388 8.105Q1.918 7.867 1.232 7.279Q0.546 6.691 0.546 5.669Q0.546 4.885 0.959 4.297Q1.372 3.709 2.114 3.373Q2.856 3.037 3.808 3.037Q4.774 3.037 5.74 3.366Q6.706 3.695 7.574 4.339L7.182 4.871Q5.53 3.639 3.808 3.639Q3.052 3.639 2.464 3.891Q1.876 4.143 1.54 4.598Q1.204 5.053 1.204 5.641Q1.204 6.411 1.722 6.838Q2.24 7.265 3.458 7.461L4.648 7.657Q6.314 7.923 7.042 8.546Q7.77 9.169 7.77 10.331Q7.77 11.143 7.308 11.78Q6.846 12.417 6.041 12.781Q5.236 13.145 4.2 13.145ZM12.394 13.131Q11.442 13.131 10.658 12.655Q9.874 12.179 9.419 11.367Q8.964 10.555 8.964 9.547Q8.964 8.539 9.405 7.727Q9.846 6.915 10.616 6.439Q11.386 5.963 12.338 5.963Q13.234 5.963 13.934 6.439Q14.634 6.915 15.047 7.706Q15.46 8.497 15.46 9.463L15.46 9.715L9.594 9.715Q9.636 10.513 10.014 11.15Q10.392 11.787 11.015 12.165Q11.638 12.543 12.394 12.543Q12.982 12.543 13.556 12.354Q14.13 12.165 14.536 11.843L14.9 12.333Q14.34 12.739 13.71 12.935Q13.08 13.131 12.394 13.131ZM9.622 9.127L14.802 9.127Q14.732 8.413 14.396 7.832Q14.06 7.251 13.528 6.901Q12.996 6.551 12.324 6.551Q11.61 6.551 11.029 6.887Q10.448 7.223 10.077 7.804Q9.706 8.385 9.622 9.127ZM16.892 12.991L16.892 3.191L17.508 3.037L17.508 12.991L16.892 12.991ZM22.44 13.131Q21.488 13.131 20.704 12.655Q19.92 12.179 19.465 11.367Q19.01 10.555 19.01 9.547Q19.01 8.539 19.451 7.727Q19.892 6.915 20.662 6.439Q21.432 5.963 22.384 5.963Q23.28 5.963 23.98 6.439Q24.68 6.915 25.093 7.706Q25.506 8.497 25.506 9.463L25.506 9.715L19.64 9.715Q19.682 10.513 20.06 11.15Q20.438 11.787 21.061 12.165Q21.684 12.543 22.44 12.543Q23.028 12.543 23.602 12.354Q24.176 12.165 24.582 11.843L24.946 12.333Q24.386 12.739 23.756 12.935Q23.126 13.131 22.44 13.131ZM19.668 9.127L24.848 9.127Q24.778 8.413 24.442 7.832Q24.106 7.251 23.574 6.901Q23.042 6.551 22.37 6.551Q21.656 6.551 21.075 6.887Q20.494 7.223 20.123 7.804Q19.752 8.385 19.668 9.127ZM30.046 13.131Q29.094 13.131 28.31 12.655Q27.526 12.179 27.071 11.367Q26.616 10.555 26.616 9.547Q26.616 8.539 27.071 7.727Q27.526 6.915 28.31 6.439Q29.094 5.963 30.046 5.963Q30.746 5.963 31.453 6.243Q32.16 6.523 32.692 7.013L32.272 7.517Q31.824 7.069 31.243 6.81Q30.662 6.551 30.046 6.551Q29.262 6.551 28.625 6.95Q27.988 7.349 27.617 8.028Q27.246 8.707 27.246 9.547Q27.246 10.387 27.617 11.066Q27.988 11.745 28.625 12.144Q29.262 12.543 30.046 12.543Q30.662 12.543 31.243 12.277Q31.824 12.011 32.272 11.577L32.692 12.081Q32.16 12.571 31.453 12.851Q30.746 13.131 30.046 13.131ZM36.546 13.131Q35.762 13.131 35.342 12.739Q34.922 12.347 34.922 11.647L34.922 6.663L33.41 6.663L33.41 6.103L34.922 6.103L34.922 4.367L35.538 4.171L35.538 6.103L37.666 6.103L37.666 6.663L35.538 6.663L35.538 11.437Q35.538 12.025 35.797 12.284Q36.056 12.543 36.658 12.543Q36.98 12.543 37.204 12.494Q37.428 12.445 37.666 12.347L37.666 12.949Q37.4 13.047 37.12 13.089Q36.84 13.131 36.546 13.131Z" clip-path="url(#clip_path_2)" fill="#BDBDBD" fill-opacity="0.851" transform="translate(8 6)" />
    <g clip-path="url(#clip_path_3)" transform="translate(227 6)">
      <path d="M0.187988 2.77881C0.124186 2.84489 0.0763345 2.91553 0.0444336 2.99072C0.014811 3.06592 0 3.14909 0 3.24023C0 3.36556 0.0296226 3.47949 0.0888672 3.58203C0.150391 3.68229 0.231283 3.76318 0.331543 3.82471C0.434082 3.88623 0.545736 3.91699 0.666504 3.91699C0.855632 3.91699 1.02197 3.84294 1.16553 3.69482L3.22296 1.56946L5.27393 3.69482C5.41292 3.84294 5.57699 3.91699 5.76611 3.91699C5.88916 3.91699 6.00081 3.88623 6.10107 3.82471C6.20361 3.76318 6.28451 3.68229 6.34375 3.58203C6.40527 3.47949 6.43604 3.36556 6.43604 3.24023C6.43604 3.05794 6.37223 2.90413 6.24463 2.77881L3.78369 0.259766C3.69482 0.170898 3.60482 0.105957 3.51367 0.0649414C3.4248 0.0239258 3.32682 0.00227857 3.21973 0C3.01237 0 2.82324 0.0865886 2.65234 0.259766L0.187988 2.77881L0.187988 2.77881Z" fill="#BDBDBD" fill-rule="evenodd" transform="translate(4.872 2.502)" />
      <path d="M3.21973 3.91357C3.32682 3.91357 3.4248 3.89307 3.51367 3.85205C3.60482 3.81104 3.69482 3.74609 3.78369 3.65723L6.24463 1.13818C6.37223 1.01286 6.43604 0.859049 6.43604 0.676758C6.43604 0.553711 6.40527 0.440918 6.34375 0.338379C6.28451 0.233561 6.20361 0.15153 6.10107 0.0922852C6.00081 0.0307617 5.88916 0 5.76611 0C5.57926 0 5.4152 0.0740557 5.27393 0.222168L3.22296 2.35077L1.16553 0.222168C1.01969 0.0740557 0.853353 0 0.666504 0C0.545736 0 0.434082 0.0307617 0.331543 0.0922852C0.231283 0.15153 0.150391 0.233561 0.0888672 0.338379C0.0296226 0.440918 0 0.553711 0 0.676758C0 0.767904 0.014811 0.851074 0.0444336 0.92627C0.0763345 1.00146 0.124186 1.0721 0.187988 1.13818L2.65234 3.65723C2.82552 3.82812 3.01465 3.91357 3.21973 3.91357L3.21973 3.91357Z" fill="#BDBDBD" fill-rule="evenodd" transform="translate(4.872 9.159)" />
    </g>
    <path d="M240 -0.5L5 -0.5Q2.72168 -0.5 1.11078 1.11084Q-0.5 2.72266 -0.5 5L-0.5 23Q-0.5 25.2793 1.11078 26.8892Q2.7218 28.5 5 28.5L240 28.5Q242.278 28.5 243.889 26.8892Q245.5 25.2793 245.5 23L245.5 5Q245.5 2.7207 243.889 1.11084Q242.278 -0.5 240 -0.5ZM240 0L5 0C2.23819 0 0 2.23828 0 5L0 23C0 25.7617 2.23819 28 5 28L240 28C242.762 28 245 25.7617 245 23L245 5C245 2.23828 242.762 0 240 0Z" fill="#BDBDBD" fill-rule="evenodd" />
  </g>
</svg>